<svg width="300" height="300" viewBox="0 0 300 300" fill="none" xmlns="http://www.w3.org/2000/svg">
<rect x="5.5" y="5.5" width="289" height="289" stroke="white" stroke-width="11"/>
<path d="M58.624 145V55.4H97.408C105.429 55.4 112.341 56.7227 118.144 59.368C123.947 61.928 128.427 65.64 131.584 70.504C134.741 75.368 136.32 81.1707 136.32 87.912C136.32 94.568 134.741 100.328 131.584 105.192C128.427 109.971 123.947 113.64 118.144 116.2C112.341 118.76 105.429 120.04 97.408 120.04H70.144L79.36 110.952V145H58.624ZM115.584 145L93.184 112.488H115.328L137.984 145H115.584ZM79.36 113.256L70.144 103.528H96.256C102.656 103.528 107.435 102.163 110.592 99.432C113.749 96.616 115.328 92.776 115.328 87.912C115.328 82.9627 113.749 79.1227 110.592 76.392C107.435 73.6613 102.656 72.296 96.256 72.296H70.144L79.36 62.44V113.256ZM180.909 146.536C174.338 146.536 168.493 145.469 163.373 143.336C158.253 141.203 154.2 138.301 151.213 134.632C148.226 130.963 146.733 126.739 146.733 121.96C146.733 117.523 147.714 113.555 149.677 110.056C151.64 106.472 154.754 103.144 159.021 100.072C163.288 96.9147 168.706 93.8427 175.277 90.856C180.056 88.6373 183.81 86.6747 186.541 84.968C189.272 83.2613 191.192 81.64 192.301 80.104C193.41 78.4827 193.965 76.8613 193.965 75.24C193.965 73.0213 193.197 71.2293 191.661 69.864C190.21 68.4987 188.034 67.816 185.133 67.816C182.061 67.816 179.672 68.584 177.965 70.12C176.258 71.656 175.405 73.6187 175.405 76.008C175.405 77.288 175.661 78.568 176.173 79.848C176.685 81.0427 177.666 82.4507 179.117 84.072C180.568 85.608 182.616 87.6133 185.261 90.088L232.493 133.864L221.613 146.536L169.517 98.152C166.53 95.4213 164.141 92.8613 162.349 90.472C160.557 88.0827 159.234 85.736 158.381 83.432C157.613 81.128 157.229 78.7387 157.229 76.264C157.229 71.912 158.381 68.072 160.685 64.744C162.989 61.416 166.232 58.856 170.413 57.064C174.594 55.1867 179.501 54.248 185.133 54.248C190.338 54.248 194.818 55.1013 198.573 56.808C202.413 58.4293 205.4 60.776 207.533 63.848C209.752 66.92 210.861 70.5893 210.861 74.856C210.861 78.6107 209.922 82.0667 208.045 85.224C206.168 88.296 203.224 91.1973 199.213 93.928C195.288 96.6587 190.125 99.432 183.725 102.248C179.373 104.211 175.917 106.131 173.357 108.008C170.882 109.8 169.09 111.635 167.981 113.512C166.872 115.389 166.317 117.48 166.317 119.784C166.317 121.917 166.957 123.837 168.237 125.544C169.602 127.251 171.48 128.573 173.869 129.512C176.258 130.451 179.074 130.92 182.317 130.92C187.522 130.92 192.301 129.725 196.653 127.336C201.005 124.861 204.674 121.235 207.661 116.456C210.733 111.592 212.909 105.704 214.189 98.792L230.189 103.784C228.397 112.488 225.197 120.04 220.589 126.44C215.981 132.84 210.306 137.789 203.565 141.288C196.824 144.787 189.272 146.536 180.909 146.536ZM58.624 247V157.4H99.328C109.056 157.4 117.632 159.277 125.056 163.032C132.48 166.701 138.283 171.864 142.464 178.52C146.645 185.176 148.736 193.069 148.736 202.2C148.736 211.245 146.645 219.139 142.464 225.88C138.283 232.536 132.48 237.741 125.056 241.496C117.632 245.165 109.056 247 99.328 247H58.624ZM79.36 229.976H98.304C104.277 229.976 109.44 228.867 113.792 226.648C118.229 224.344 121.643 221.101 124.032 216.92C126.507 212.739 127.744 207.832 127.744 202.2C127.744 196.483 126.507 191.576 124.032 187.48C121.643 183.299 118.229 180.099 113.792 177.88C109.44 175.576 104.277 174.424 98.304 174.424H79.36V229.976Z" fill="white"/>
</svg>
