<svg width="72" height="72" viewBox="0 0 72 72" fill="none" xmlns="http://www.w3.org/2000/svg">
<g clip-path="url(#clip0_68_19)">
<path d="M35.5002 2.11792V53.6909L1.11816 70.8819L35.5002 2.11792Z" fill="#4B2C6D"/>
<path d="M35 4.236V53.382L2.236 69.764L35 4.236ZM36 0L0 72L36 54V0Z" fill="#4B2C6D"/>
<path d="M36.5 53.6909V2.11792L70.882 70.8819L36.5 53.6909Z" fill="#4B2C6D"/>
<path d="M37 4.236L69.764 69.764L37 53.382V4.236ZM36 0V54L72 72L36 0Z" fill="#4B2C6D"/>
<path d="M53.932 62.9095L36.0654 53.9751V53.689V53.4029H36.5606H37.0557L53.3784 61.5638C62.3558 66.0523 69.701 69.7075 69.701 69.6866C69.701 69.6656 67.0774 64.4012 63.8707 57.988C60.0748 50.3963 57.9969 46.1599 57.9159 45.8473C57.7644 45.2625 57.6467 45.0275 56.4869 42.9938C55.0682 40.5059 50.4359 30.7874 49.8882 29.7763C48.9418 28.0294 48.3673 26.8797 47.0052 24.0766C46.1962 22.4117 45.2644 20.7768 42.0382 14.3139C39.8186 9.86732 37.5666 5.25743 37.034 4.06974L36.0654 1.9103L36.0696 1.09517L36.0738 0.280029L53.9594 36.0406C63.7965 55.7089 71.8346 71.8108 71.8217 71.8225C71.8089 71.8343 63.7585 67.8234 53.932 62.9095Z" fill="#F9F9F9"/>
<path d="M0.145743 71.8033C0.148069 71.7718 8.21184 55.6319 18.0652 35.9368L35.9805 0.127441L35.9847 0.956756L35.9889 1.78607L35.2924 3.39743C34.8735 4.36674 28.1555 17.8902 18.4323 37.3372C9.54228 55.1178 2.28388 69.6808 2.30254 69.6995C2.3212 69.7182 9.68516 66.059 18.6669 61.5681L34.9973 53.4029H35.4931H35.989V53.689V53.975L18.1033 62.9178C8.26623 67.8363 0.200556 71.8605 0.179605 71.8605C0.158654 71.8605 0.143416 71.8348 0.145743 71.8033Z" fill="#F9F9F9"/>
<path d="M39.2801 28.0556C38.0656 28.3151 37.1728 29.2493 37.1728 30.2874C37.1728 30.713 37.4012 31.284 37.7541 31.7511C37.9514 32.0106 38.1071 32.239 38.0863 32.2494C38.0656 32.2701 37.8372 32.4258 37.5673 32.6023C36.5811 33.2667 36.1348 34.0348 36.1348 35.0521C36.1348 36.059 36.9133 36.9414 38.1382 37.3047C38.7092 37.4812 39.0517 37.5227 39.9756 37.4812C41.0656 37.45 41.1279 37.4293 41.9583 37.0037L42.8199 36.5677L43.2974 37.0348C43.5569 37.2943 43.8061 37.502 43.8476 37.502C43.9306 37.502 44.3666 37.0244 44.7818 36.495L44.9998 36.2251L44.4912 35.7684C43.9929 35.3116 43.9825 35.3013 44.1175 34.9795C44.5223 33.9933 44.7507 33.2978 44.7196 33.2044C44.678 33.1006 44.1798 32.9137 43.287 32.6646C43.1521 32.6231 43.0794 32.7372 42.986 33.1317C42.7576 34.0971 42.6953 34.1075 41.8337 33.3082C41.4081 32.9137 41.0656 32.5608 41.0656 32.5089C41.0656 32.4673 41.3251 32.2494 41.6365 32.0314C42.2697 31.5954 42.7784 30.7649 42.7784 30.1836C42.7784 29.3843 42.249 28.6057 41.4808 28.2528C40.9721 28.0244 39.8822 27.931 39.2801 28.0556ZM40.7438 29.623C41.0344 29.8514 41.0967 30.2044 40.8995 30.5573C40.7749 30.7961 40.0067 31.3774 39.8199 31.3774C39.6227 31.3774 39.1867 30.7545 39.1036 30.3601C39.031 30.0798 39.0725 29.9864 39.332 29.7165C39.7265 29.3324 40.3182 29.2909 40.7438 29.623ZM40.2559 34.2009C40.7645 34.6577 41.2524 35.1248 41.3666 35.2286C41.5535 35.4051 41.5431 35.4154 41.1071 35.6334C39.7057 36.3601 37.9306 35.7061 38.1486 34.5435C38.2109 34.2113 38.9998 33.3497 39.249 33.3497C39.3009 33.3497 39.7576 33.7338 40.2559 34.2009Z" fill="white"/>
<path d="M27 32.7267V37.3979H28.0381H29.0761V36.1004V34.8028H30.0934H31.1004L31.9827 36.1004L32.8651 37.3979H34.0485H35.2215L34.9723 37.0554C34.827 36.8789 34.3599 36.2042 33.9239 35.571L33.135 34.4291L33.5087 34.2319C34.0173 33.9516 34.6401 33.2146 34.827 32.654C35.0554 31.9793 35.045 30.8893 34.7855 30.2145C34.3806 29.135 33.2388 28.3564 31.7647 28.1592C31.3391 28.1073 30.0934 28.0554 29.0035 28.0554H27V32.7267ZM32.0242 30.0796C32.5536 30.3391 32.8132 30.7751 32.8132 31.4291C32.8132 32.1038 32.5433 32.6021 32.0346 32.872C31.7024 33.0381 31.4222 33.0796 30.3841 33.0796L29.128 33.09L29.0969 31.5848C29.0865 30.7647 29.0969 30.0277 29.128 29.9447C29.2111 29.7163 31.4844 29.8201 32.0242 30.0796Z" fill="white"/>
<path d="M27 43.3047V47.9863H29.4706C31.2042 47.9863 32.1384 47.9344 32.6367 47.8306C35.1073 47.3116 36.6644 45.0486 36.2491 42.578C35.9481 40.7303 34.7336 39.4119 32.8547 38.8929C32.3876 38.7683 31.609 38.706 29.6263 38.6749L27 38.623V43.3047ZM32.4083 40.6887C33.5502 41.1974 34.1004 42.059 34.1107 43.315C34.1107 43.969 34.0588 44.1974 33.8097 44.6957C33.2491 45.8375 32.3876 46.2216 30.3529 46.2216H29.0761V43.3877C29.0761 41.8202 29.1073 40.5123 29.1592 40.4707C29.2007 40.4188 29.8443 40.4085 30.5813 40.4292C31.6401 40.4707 32.0346 40.5227 32.4083 40.6887Z" fill="white"/>
</g>
<defs>
<clipPath id="clip0_68_19">
<rect width="72" height="72" fill="white"/>
</clipPath>
</defs>
</svg>
